<svg width="155" height="27" viewBox="0 0 155 27" fill="none" xmlns="http://www.w3.org/2000/svg">
<path d="M17.6923 8.01203H17.5963L15.9643 11.276L11.6123 19.18L7.35628 11.308L5.66028 7.78803H5.56428V22.668H0.988281V0.332031H6.14028L11.6123 10.796H11.6763L17.0843 0.332031H22.2683V22.668H17.6923V8.01203Z" fill="white"/>
<path d="M33.767 23.052C32.5297 23.052 31.4204 22.8494 30.439 22.444C29.479 22.0387 28.6577 21.452 27.975 20.684C27.3137 19.916 26.8017 18.988 26.439 17.9C26.0764 16.812 25.895 15.596 25.895 14.252C25.895 12.908 26.0764 11.692 26.439 10.604C26.8017 9.51603 27.3137 8.5987 27.975 7.85203C28.6577 7.08403 29.479 6.49736 30.439 6.09203C31.4204 5.6867 32.5297 5.48403 33.767 5.48403C35.0044 5.48403 36.103 5.6867 37.063 6.09203C38.0444 6.49736 38.8657 7.08403 39.527 7.85203C40.2097 8.5987 40.7324 9.51603 41.095 10.604C41.4577 11.692 41.639 12.908 41.639 14.252C41.639 15.596 41.4577 16.812 41.095 17.9C40.7324 18.988 40.2097 19.916 39.527 20.684C38.8657 21.452 38.0444 22.0387 37.063 22.444C36.103 22.8494 35.0044 23.052 33.767 23.052ZM33.767 19.308C34.7057 19.308 35.431 19.02 35.943 18.444C36.455 17.868 36.711 17.0467 36.711 15.98V12.556C36.711 11.4894 36.455 10.668 35.943 10.092C35.431 9.51603 34.7057 9.22803 33.767 9.22803C32.8284 9.22803 32.103 9.51603 31.591 10.092C31.079 10.668 30.823 11.4894 30.823 12.556V15.98C30.823 17.0467 31.079 17.868 31.591 18.444C32.103 19.02 32.8284 19.308 33.767 19.308Z" fill="white"/>
<path d="M50.714 22.668C49.0714 22.668 47.8234 22.252 46.97 21.42C46.138 20.588 45.722 19.372 45.722 17.772V9.54803H43.354V5.86803H44.538C45.178 5.86803 45.6154 5.7187 45.85 5.42003C46.0847 5.10003 46.202 4.65203 46.202 4.07603V1.32403H50.458V5.86803H53.786V9.54803H50.458V18.988H53.53V22.668H50.714Z" fill="white"/>
<path d="M63.767 23.052C62.5297 23.052 61.4204 22.8494 60.439 22.444C59.479 22.0387 58.6577 21.452 57.975 20.684C57.3137 19.916 56.8017 18.988 56.439 17.9C56.0764 16.812 55.895 15.596 55.895 14.252C55.895 12.908 56.0764 11.692 56.439 10.604C56.8017 9.51603 57.3137 8.5987 57.975 7.85203C58.6577 7.08403 59.479 6.49736 60.439 6.09203C61.4204 5.6867 62.5297 5.48403 63.767 5.48403C65.0044 5.48403 66.103 5.6867 67.063 6.09203C68.0444 6.49736 68.8657 7.08403 69.527 7.85203C70.2097 8.5987 70.7324 9.51603 71.095 10.604C71.4577 11.692 71.639 12.908 71.639 14.252C71.639 15.596 71.4577 16.812 71.095 17.9C70.7324 18.988 70.2097 19.916 69.527 20.684C68.8657 21.452 68.0444 22.0387 67.063 22.444C66.103 22.8494 65.0044 23.052 63.767 23.052ZM63.767 19.308C64.7057 19.308 65.431 19.02 65.943 18.444C66.455 17.868 66.711 17.0467 66.711 15.98V12.556C66.711 11.4894 66.455 10.668 65.943 10.092C65.431 9.51603 64.7057 9.22803 63.767 9.22803C62.8284 9.22803 62.103 9.51603 61.591 10.092C61.079 10.668 60.823 11.4894 60.823 12.556V15.98C60.823 17.0467 61.079 17.868 61.591 18.444C62.103 19.02 62.8284 19.308 63.767 19.308Z" fill="white"/>
<path d="M75.0135 22.668V5.86803H79.7495V9.51603H79.9095C79.9949 9.0467 80.1442 8.5987 80.3575 8.17203C80.5709 7.72403 80.8482 7.32936 81.1895 6.98803C81.5522 6.6467 81.9789 6.38003 82.4695 6.18803C82.9602 5.9747 83.5362 5.86803 84.1975 5.86803H85.0295V10.284H83.8455C82.4589 10.284 81.4242 10.4654 80.7415 10.828C80.0802 11.1907 79.7495 11.8627 79.7495 12.844V22.668H75.0135Z" fill="white"/>
<path d="M93.647 23.052C92.0257 23.052 90.6604 22.796 89.551 22.284C88.4417 21.7507 87.4497 21.004 86.575 20.044L89.359 17.228C89.9564 17.8894 90.6177 18.412 91.343 18.796C92.0684 19.18 92.8897 19.372 93.807 19.372C94.7457 19.372 95.3964 19.2334 95.759 18.956C96.1217 18.6574 96.303 18.2627 96.303 17.772C96.303 16.9827 95.7377 16.5134 94.607 16.364L92.783 16.14C89.007 15.6707 87.119 13.9427 87.119 10.956C87.119 10.1454 87.2684 9.40936 87.567 8.74803C87.887 8.06536 88.3244 7.48936 88.879 7.02003C89.455 6.52936 90.1377 6.15603 90.927 5.90003C91.7377 5.6227 92.6444 5.48403 93.647 5.48403C94.5217 5.48403 95.2897 5.54803 95.951 5.67603C96.6337 5.7827 97.231 5.95336 97.743 6.18803C98.2764 6.40136 98.7564 6.6787 99.183 7.02003C99.631 7.34003 100.068 7.7027 100.495 8.10803L97.775 10.892C97.2417 10.3587 96.6337 9.9427 95.951 9.64403C95.2897 9.32403 94.607 9.16403 93.903 9.16403C93.0924 9.16403 92.5164 9.29203 92.175 9.54803C91.8337 9.80403 91.663 10.1454 91.663 10.572C91.663 11.02 91.7804 11.372 92.015 11.628C92.271 11.8627 92.7404 12.0334 93.423 12.14L95.311 12.396C99.0017 12.8867 100.847 14.572 100.847 17.452C100.847 18.2627 100.676 19.0094 100.335 19.692C99.9937 20.3747 99.503 20.972 98.863 21.484C98.2444 21.9747 97.487 22.3587 96.591 22.636C95.7164 22.9134 94.735 23.052 93.647 23.052Z" fill="white"/>
<path d="M114.371 22.908C113.357 22.908 112.504 22.748 111.811 22.428C111.117 22.0947 110.497 21.628 109.951 21.028L111.691 19.268C112.064 19.6814 112.477 20.008 112.931 20.248C113.384 20.488 113.897 20.608 114.471 20.608C115.057 20.608 115.464 20.5214 115.691 20.348C115.917 20.1614 116.031 19.9147 116.031 19.608C116.031 19.1147 115.677 18.8214 114.971 18.728L113.831 18.588C111.471 18.2947 110.291 17.2147 110.291 15.348C110.291 14.8414 110.384 14.3814 110.571 13.968C110.771 13.5414 111.044 13.1814 111.391 12.888C111.751 12.5814 112.177 12.348 112.671 12.188C113.177 12.0147 113.744 11.928 114.371 11.928C114.917 11.928 115.397 11.968 115.811 12.048C116.237 12.1147 116.611 12.2214 116.931 12.368C117.264 12.5014 117.564 12.6747 117.831 12.888C118.111 13.088 118.384 13.3147 118.651 13.568L116.951 15.308C116.617 14.9747 116.237 14.7147 115.811 14.528C115.397 14.328 114.971 14.228 114.531 14.228C114.024 14.228 113.664 14.308 113.451 14.468C113.237 14.628 113.131 14.8414 113.131 15.108C113.131 15.388 113.204 15.608 113.351 15.768C113.511 15.9147 113.804 16.0214 114.231 16.088L115.411 16.248C117.717 16.5547 118.871 17.608 118.871 19.408C118.871 19.9147 118.764 20.3814 118.551 20.808C118.337 21.2347 118.031 21.608 117.631 21.928C117.244 22.2347 116.771 22.4747 116.211 22.648C115.664 22.8214 115.051 22.908 114.371 22.908Z" fill="white"/>
<path d="M120.889 7.86803H123.849V13.948H123.969C124.155 13.4014 124.482 12.928 124.949 12.528C125.415 12.128 126.062 11.928 126.889 11.928C127.969 11.928 128.782 12.288 129.329 13.008C129.889 13.728 130.169 14.7547 130.169 16.088V22.668H127.209V16.328C127.209 15.648 127.102 15.148 126.889 14.828C126.675 14.4947 126.295 14.328 125.749 14.328C125.509 14.328 125.275 14.3614 125.049 14.428C124.822 14.4814 124.615 14.5747 124.429 14.708C124.255 14.8414 124.115 15.008 124.009 15.208C123.902 15.3947 123.849 15.6147 123.849 15.868V22.668H120.889V7.86803Z" fill="white"/>
<path d="M137.063 22.908C136.289 22.908 135.596 22.7814 134.983 22.528C134.383 22.2747 133.869 21.908 133.443 21.428C133.029 20.948 132.709 20.368 132.483 19.688C132.256 19.008 132.143 18.248 132.143 17.408C132.143 16.568 132.256 15.808 132.483 15.128C132.709 14.448 133.029 13.8747 133.443 13.408C133.869 12.928 134.383 12.5614 134.983 12.308C135.596 12.0547 136.289 11.928 137.063 11.928C137.836 11.928 138.523 12.0547 139.123 12.308C139.736 12.5614 140.249 12.928 140.663 13.408C141.089 13.8747 141.416 14.448 141.643 15.128C141.869 15.808 141.983 16.568 141.983 17.408C141.983 18.248 141.869 19.008 141.643 19.688C141.416 20.368 141.089 20.948 140.663 21.428C140.249 21.908 139.736 22.2747 139.123 22.528C138.523 22.7814 137.836 22.908 137.063 22.908ZM137.063 20.568C137.649 20.568 138.103 20.388 138.423 20.028C138.743 19.668 138.903 19.1547 138.903 18.488V16.348C138.903 15.6814 138.743 15.168 138.423 14.808C138.103 14.448 137.649 14.268 137.063 14.268C136.476 14.268 136.023 14.448 135.703 14.808C135.383 15.168 135.223 15.6814 135.223 16.348V18.488C135.223 19.1547 135.383 19.668 135.703 20.028C136.023 20.388 136.476 20.568 137.063 20.568Z" fill="white"/>
<path d="M144.092 12.168H147.052V13.928H147.152C147.298 13.3414 147.632 12.8614 148.152 12.488C148.685 12.1147 149.292 11.928 149.972 11.928C151.305 11.928 152.312 12.3947 152.992 13.328C153.672 14.2614 154.012 15.6214 154.012 17.408C154.012 19.1947 153.672 20.5614 152.992 21.508C152.312 22.4414 151.305 22.908 149.972 22.908C149.625 22.908 149.298 22.8547 148.992 22.748C148.685 22.6547 148.405 22.5214 148.152 22.348C147.912 22.1614 147.705 21.948 147.532 21.708C147.358 21.4547 147.232 21.188 147.152 20.908H147.052V26.668H144.092V12.168ZM148.992 20.508C149.552 20.508 150.012 20.3147 150.372 19.928C150.745 19.528 150.932 18.9947 150.932 18.328V16.508C150.932 15.8414 150.745 15.3147 150.372 14.928C150.012 14.528 149.552 14.328 148.992 14.328C148.432 14.328 147.965 14.468 147.592 14.748C147.232 15.0147 147.052 15.388 147.052 15.868V18.968C147.052 19.448 147.232 19.828 147.592 20.108C147.965 20.3747 148.432 20.508 148.992 20.508Z" fill="white"/>
</svg>
